<?xml version="1.0" encoding="UTF-8"?>
<svg width="186px" height="200px" viewBox="0 0 186 200" version="1.1" xmlns="http://www.w3.org/2000/svg" xmlns:xlink="http://www.w3.org/1999/xlink">
    <!-- Generator: Sketch 52.6 (67491) - http://www.bohemiancoding.com/sketch -->
    <title>angularElement</title>
    <desc>Created with Sketch.</desc>
    <g id="Page-1" stroke="none" stroke-width="1" fill="none" fill-rule="evenodd">
        <g id="angularElement">
            <polygon id="Path" fill="#448AFF" points="92.4 0 92.4 0 92.4 0 0 33.3 14 156.1 92.4 200 92.4 200 92.4 200 171.3 156.1 185.6 33.3"></polygon>
            <polygon id="Path" fill="#2979FF" points="92.4 0 92.4 22.2 92.4 22.2 92.4 123.2 92.4 123.2 92.4 200 92.4 200 171.3 156.1 185.6 33.3"></polygon>
            <polygon id="Path" fill="#FFFFFF" points="73.6 131.4 54.3 98 84.3 46.1 62.8 46.1 32.8 98 62.8 150 84.4 150 73.6 131.4"></polygon>
            <polygon id="Path" fill="#A2C5FF" points="152.8 98 122.8 46.1 84.3 46.1 54.3 98 73.6 64.7 112.1 64.7 131.3 98 112.1 131.4 73.6 131.4 84.4 150 122.8 150"></polygon>
        </g>
    </g>
</svg>