<svg version="1.1" xmlns="http://www.w3.org/2000/svg" viewBox="0 0 607.1985514742928 147.3032838887591" width="607.1985514742928" height="147.3032838887591">
  <defs>
    <style>
      @font-face {
        font-family: "Virgil";
        src: url("https://excalidraw.com/FG_Virgil.woff2");
      }
      @font-face {
        font-family: "Cascadia";
        src: url("https://excalidraw.com/Cascadia.woff2");
      }
    </style>
  </defs>
  <rect x="0" y="0" width="607.1985514742928" height="147.3032838887591" fill="transparent"></rect><g><g transform="translate(100.70057116039055 148.36985565996224) rotate(249.07021510730843 -16.627773777297108 -84.85147758437597)"><path d="M-0.7624847386032343 -2.7008171167224644 C-6.722774778397863 -30.921380668314473, -29.68288220113508 -143.70699411696282, -36.370386927005555 -171.7076692357342 M4.019070761203766 2.0047140669822694 C-2.0368888445863957 -25.74813632171072, -30.742533221726532 -141.05474242055007, -37.274618315797944 -169.4610376334618" stroke="#ffffff" stroke-width="2" fill="none"></path></g><g transform="translate(100.70057116039055 148.36985565996224) rotate(249.07021510730843 -16.627773777297108 -84.85147758437597)"><path d="M-24.56650424396159 -140.9400273395174 C-28.53074101747186 -154.4429363927392, -31.70798416390039 -161.6501712549323, -38.86047672415962 -168.43226765979634 M-22.615827260739223 -143.81137021271817 C-25.0707740876937 -155.49457841787535, -31.39267624550206 -164.79336164992785, -35.86909745755484 -167.5636893804054" stroke="#ffffff" stroke-width="2" fill="none"></path></g><g transform="translate(100.70057116039055 148.36985565996224) rotate(249.07021510730843 -16.627773777297108 -84.85147758437597)"><path d="M-44.519116708647836 -136.1428137503715 C-42.84958773597865 -150.8719397137756, -40.47476469651286 -159.41405978971952, -38.86047672415962 -168.43226765979634 M-42.56843972542547 -139.01415662357226 C-37.08893475276004 -152.6901279744766, -35.55180274540889 -163.87846153791514, -35.86909745755484 -167.5636893804054" stroke="#ffffff" stroke-width="2" fill="none"></path></g></g><g><g transform="translate(303.54332314664924 136.83392382790203) rotate(177.40690079173623 1.3048132769990275 -63.19773756644224)"><path d="M1.7903031978756188 0.5256646540015937 C1.909369304868475 -19.651770151488765, 3.6250776826982474 -101.56260576115443, 3.3288027303242416 -122.66831726443938 M-0.6823421368002891 -1.6572854867577553 C-1.1042240003566985 -22.52087334251184, 0.4793890349959111 -106.51265233396384, 1.5025581357949704 -126.9211397868859" stroke="#ffffff" stroke-width="2" fill="none"></path></g><g transform="translate(303.54332314664924 136.83392382790203) rotate(177.40690079173623 1.3048132769990275 -63.19773756644224)"><path d="M11.62916594243774 -97.34023312829504 C9.510867658667172 -113.16773058808779, 0.9080536614199586 -121.66157440961506, -0.09617075566711719 -123.16345955331795 M9.368411500595304 -98.21789530456135 C7.317910832530254 -110.6059424786348, 2.0128780077859796 -119.25193124031361, 1.3347438493692607 -127.48455984232001" stroke="#ffffff" stroke-width="2" fill="none"></path></g><g transform="translate(303.54332314664924 136.83392382790203) rotate(177.40690079173623 1.3048132769990275 -63.19773756644224)"><path d="M-8.882043188425921 -97.9807816243626 C-2.939150896268976 -113.81860034861519, -3.4734367959891994 -122.06047055389313, -0.09617075566711719 -123.16345955331795 M-11.142797630268358 -98.85844380062892 C-5.501281098710987 -110.63230760137756, -3.1235561767716735 -119.03837004331129, 1.3347438493692607 -127.48455984232001" stroke="#ffffff" stroke-width="2" fill="none"></path></g></g><g><g transform="translate(544.9516915080696 150.22190464498476) rotate(138.13584043007194 -18.732050184024786 -83.71298648694813)"><path d="M0.3021483931690456 2.605086662992835 C-6.1603288748284015 -26.161836133581573, -29.89441701840353 -141.23749181569704, -36.68903628977826 -170.03105963688895 M-2.9783524069190026 1.5509656128287315 C-9.809115164793514 -25.604839039551393, -32.50890122551215 -138.68465315574, -37.76624876121869 -166.87426853810058" stroke="#ffffff" stroke-width="2" fill="none"></path></g><g transform="translate(544.9516915080696 150.22190464498476) rotate(138.13584043007194 -18.732050184024786 -83.71298648694813)"><path d="M-18.5644572621445 -138.12202749404256 C-29.7986122308936 -153.10722250516258, -35.77481006600047 -160.52469557262364, -37.15196221555462 -170.6484227876793 M-23.76733255407315 -142.11524418185596 C-29.73516256544542 -148.40200352887257, -31.300196603365634 -158.85755169970287, -39.372459918734336 -168.2930529758017" stroke="#ffffff" stroke-width="2" fill="none"></path></g><g transform="translate(544.9516915080696 150.22190464498476) rotate(138.13584043007194 -18.732050184024786 -83.71298648694813)"><path d="M-38.704188461940866 -134.18359765643106 C-42.46845004422105 -150.6871759770597, -40.90244275089366 -159.57956672959452, -37.15196221555462 -170.6484227876793 M-43.907063753869515 -138.17681434424446 C-42.97287975595849 -145.66603921449533, -37.589596473427974 -157.48036720143025, -39.372459918734336 -168.2930529758017" stroke="#ffffff" stroke-width="2" fill="none"></path></g></g>
</svg>
