<?xml version="1.0" encoding="UTF-8"?>
<svg width="289px" height="200px" viewBox="0 0 289 200" version="1.1" xmlns="http://www.w3.org/2000/svg" xmlns:xlink="http://www.w3.org/1999/xlink">
    <!-- Generator: Sketch 52.6 (67491) - http://www.bohemiancoding.com/sketch -->
    <title>litElement</title>
    <desc>Created with Sketch.</desc>
    <g id="Page-1" stroke="none" stroke-width="1" fill="none" fill-rule="evenodd">
        <g id="litElement">
            <polygon id="Path" fill="#FFFFFF" points="115.547118 0 57.773559 0 0 100 57.773559 200 115.547118 200 202.273559 49.9339498 231.226441 100 173.452882 200 231.226441 200 289 100 231.226441 0 173.452882 0 86.726441 150.06605 57.773559 100"></polygon>
            <polygon id="Path" fill="#F52757" opacity="0.8" points="144 50 172.933638 1 202 50"></polygon>
            <polygon id="Path" fill="#F52757" opacity="0.7" points="144 50 172.933638 101 202 50"></polygon>
            <polygon id="Path" fill="#F52757" opacity="0.6" points="115 101 144.066362 50 173 101"></polygon>
            <polygon id="Path" fill="#1E88E5" opacity="0.68" points="57 1 86.0663616 50 115 1"></polygon>
            <polygon id="Path" fill="#1E88E5" opacity="0.76" points="29 50 57.9336384 1 87 50"></polygon>
            <polygon id="Path" fill="#1E88E5" opacity="0.84" points="29 50 57.9336384 101 87 50"></polygon>
            <polygon id="Path" fill="#1E88E5" opacity="0.94" points="0 101 29.0663616 50 58 101"></polygon>
            <polygon id="Path" fill="#F52757" opacity="0.65" points="115 100 144.066362 151 173 100"></polygon>
            <polygon id="Path" fill="#F52757" opacity="0.7" points="87 151 115.933638 100 145 151"></polygon>
            <polygon id="Path" fill="#F52757" opacity="0.8" points="87 151 115.933638 200 145 151"></polygon>
            <polygon id="Path" fill="#F52757" points="57 200 86.0663616 151 115 200"></polygon>
            <polygon id="Path" fill="#1E88E5" points="0 100 29.0663616 151 58 100"></polygon>
            <polygon id="Path" fill="#1E88E5" opacity="0.68" points="232 200 202.933638 151 174 200"></polygon>
            <polygon id="Path" fill="#1E88E5" opacity="0.76" points="260 151 231.066362 200 202 151"></polygon>
            <polygon id="Path" fill="#1E88E5" opacity="0.84" points="260 151 231.066362 100 202 151"></polygon>
            <polygon id="Path" fill="#1E88E5" opacity="0.94" points="289 100 259.933638 151 231 100"></polygon>
            <polygon id="Path" fill="#1E88E5" points="289 101 259.933638 50 231 101"></polygon>
            <polygon id="Path" fill="#0D47A1" opacity="0.92" points="87 151 57.9336384 100 29 151"></polygon>
            <polygon id="Path" fill="#0D47A1" points="87 151 57.9336384 200 29 151"></polygon>
            <polygon id="Path" fill="#F52757" points="174 1 203 50 232 1"></polygon>
            <polygon id="Path" fill="#0D47A1" points="260 50 231.066362 1 202 50"></polygon>
            <polygon id="Path" fill="#0D47A1" opacity="0.92" points="260 50 231.066362 101 202 50"></polygon>
        </g>
    </g>
</svg>