<?xml version="1.0" encoding="UTF-8"?>
<svg width="224px" height="200px" viewBox="0 0 224 200" version="1.1" xmlns="http://www.w3.org/2000/svg" xmlns:xlink="http://www.w3.org/1999/xlink">
    <!-- Generator: Sketch 52.6 (67491) - http://www.bohemiancoding.com/sketch -->
    <title>react</title>
    <desc>Created with Sketch.</desc>
    <g id="Page-1" stroke="none" stroke-width="1" fill="none" fill-rule="evenodd">
        <g id="react" fill="#61DAFB">
            <path d="M224,100.022889 C224,85.1453422 205.41704,71.046006 176.926213,62.3025864 C183.501019,33.1883726 180.578883,10.0251774 167.703221,2.60929274 C164.735426,0.869764248 161.265389,0.0457770657 157.475744,0.0457770657 L157.475744,10.2540627 C159.576029,10.2540627 161.265389,10.6660563 162.680799,11.4442664 C168.890338,15.0148775 171.584183,28.6106661 169.483897,46.0975051 C168.981655,50.4005493 168.159804,54.9324788 167.15532,59.5559625 C158.206278,57.3586633 148.435385,55.6649119 138.16225,54.5662623 C131.998369,46.0975051 125.606196,38.4069581 119.168365,31.6777295 C134.052996,17.8072786 148.02446,10.2082856 157.521402,10.2082856 L157.521402,0 C157.521402,0 157.521402,0 157.521402,0 C144.965349,0 128.528333,8.97230488 111.908683,24.5365072 C95.2890338,9.06385901 78.8520179,0.183108263 66.2959641,0.183108263 L66.2959641,10.3913939 C75.7472483,10.3913939 89.7643702,17.9446098 104.649001,31.7235065 C98.2568284,38.4527352 91.8646555,46.0975051 85.7920913,54.5662623 C75.473298,55.6649119 65.7024052,57.3586633 56.7533632,59.6017395 C55.7032205,55.024033 54.9270281,50.5836576 54.3791276,46.3263905 C52.2331839,28.8395514 54.8813698,15.2437629 61.0452507,11.6273747 C62.415002,10.8033875 64.1956788,10.437171 66.2959641,10.437171 L66.2959641,0.228885328 C66.2959641,0.228885328 66.2959641,0.228885328 66.2959641,0.228885328 C62.4606604,0.228885328 58.9906237,1.05287251 55.9771708,2.79240101 C43.1471667,10.2082856 40.270689,33.3257038 46.8911537,62.3483635 C18.4916429,71.1375601 0,85.1911192 0,100.022889 C0,114.900435 18.5829596,128.999771 47.0737872,137.743191 C40.4989808,166.857404 43.421117,190.0206 56.2967795,197.436484 C59.264574,199.176013 62.7346107,200 66.5699144,200 C79.1259682,200 95.5629841,191.027695 112.182634,175.463493 C128.802283,190.936141 145.239299,199.816892 157.795353,199.816892 C161.630656,199.816892 165.100693,198.992905 168.114146,197.253376 C180.94415,189.837491 183.820628,166.720073 177.200163,137.697414 C205.508357,128.953994 224,114.854658 224,100.022889 Z M164.552792,69.4895857 C162.863433,75.3948272 160.763147,81.4831769 158.388912,87.5715267 C156.516918,83.9093614 154.553608,80.2471962 152.407664,76.5850309 C150.307379,72.9228656 148.070118,69.3522545 145.832858,65.8731975 C152.316347,66.8345159 158.571545,68.0247196 164.552792,69.4895857 Z M143.641256,118.242161 C140.079902,124.422065 136.427232,130.281529 132.637587,135.729 C125.834488,136.324102 118.940073,136.644541 112,136.644541 C105.105585,136.644541 98.21117,136.324102 91.4537301,135.774777 C87.6640848,130.327306 83.9657562,124.513619 80.4044028,118.379492 C76.9343661,112.382696 73.783938,106.294347 70.9074603,100.16022 C73.7382797,94.0260929 76.9343661,87.8919661 80.3587444,81.8951705 C83.9200978,75.7152667 87.572768,69.8558022 91.3624134,64.4083314 C98.1655116,63.8132296 105.059927,63.4927901 112,63.4927901 C118.894415,63.4927901 125.78883,63.8132296 132.54627,64.3625544 C136.335915,69.8100252 140.034244,75.6237125 143.595597,81.7578393 C147.065634,87.7546349 150.216062,93.8429847 153.09254,99.9771115 C150.216062,106.111238 147.065634,112.245365 143.641256,118.242161 Z M158.388912,112.291142 C160.854464,118.425269 162.954749,124.559396 164.689768,130.510414 C158.70852,131.97528 152.407664,133.211261 145.878516,134.17258 C148.115777,130.647745 150.353037,127.031357 152.453322,123.323415 C154.553608,119.66125 156.516918,115.953307 158.388912,112.291142 Z M112.091317,161.135271 C107.845088,156.740673 103.598859,151.842527 99.3982878,146.48661 C103.507542,146.669718 107.708113,146.80705 111.954342,146.80705 C116.246229,146.80705 120.492458,146.715496 124.647371,146.48661 C120.538117,151.842527 116.291887,156.740673 112.091317,161.135271 Z M78.1214839,134.17258 C71.6379943,133.211261 65.3827966,132.021057 59.4015491,130.556191 C61.0909091,124.65095 63.1911945,118.5626 65.5654301,112.47425 C67.4374236,116.136416 69.4007338,119.798581 71.5466775,123.460746 C73.6926213,127.122911 75.8842234,130.693523 78.1214839,134.17258 Z M111.863025,38.9105058 C116.109254,43.3051041 120.355483,48.2032502 124.556054,53.5591669 C120.4468,53.3760586 116.246229,53.2387274 112,53.2387274 C107.708113,53.2387274 103.461883,53.3302815 99.3069711,53.5591669 C103.416225,48.2032502 107.662454,43.3051041 111.863025,38.9105058 Z M78.0758255,65.8731975 C75.838565,69.3980316 73.6013045,73.0144198 71.5010192,76.7223621 C69.4007338,80.3845274 67.4374236,84.0466926 65.5654301,87.7088579 C63.0998777,81.5747311 60.9995923,75.4406043 59.264574,69.4895857 C65.2458214,68.0704967 71.5466775,66.8345159 78.0758255,65.8731975 Z M36.7549939,123.186084 C20.5919283,116.273747 10.1361598,107.209888 10.1361598,100.022889 C10.1361598,92.8358892 20.5919283,83.7262531 36.7549939,76.8596933 C40.6816143,75.1659419 44.9735018,73.6552987 49.4023645,72.2362097 C52.004892,81.2085145 55.4292703,90.5470359 59.6754994,100.114443 C55.4749287,109.636072 52.0962087,118.928817 49.5393396,127.855344 C45.0191602,126.436255 40.7272727,124.879835 36.7549939,123.186084 Z M61.319201,188.601511 C55.1096616,185.0309 52.4158174,171.435111 54.5161027,153.948272 C55.0183449,149.645228 55.8401957,145.113298 56.84468,140.489815 C65.793722,142.687114 75.5646148,144.380865 85.8377497,145.479515 C92.0016307,153.948272 98.3938035,161.638819 104.831635,168.368048 C89.9470037,182.238499 75.9755402,189.837491 66.4785976,189.837491 C64.4239706,189.791714 62.6889523,189.379721 61.319201,188.601511 Z M169.620872,153.719387 C171.766816,171.206226 169.11863,184.802014 162.954749,188.418402 C161.584998,189.24239 159.804321,189.608606 157.704036,189.608606 C148.252752,189.608606 134.23563,182.05539 119.350999,168.276493 C125.743172,161.547265 132.135344,153.902495 138.207909,145.433738 C148.526702,144.335088 158.297595,142.641337 167.246637,140.39826 C168.296779,145.021744 169.11863,149.462119 169.620872,153.719387 Z M187.199348,123.186084 C183.272727,124.879835 178.98084,126.390478 174.551977,127.809567 C171.94945,118.837263 168.525071,109.498741 164.278842,99.9313344 C168.479413,90.4097047 171.858133,81.1169604 174.415002,72.1904326 C178.935181,73.6095216 183.227069,75.1659419 187.245006,76.8596933 C203.408072,83.7720302 213.86384,92.8358892 213.86384,100.022889 C213.818182,107.209888 203.362413,116.319524 187.199348,123.186084 Z" id="Shape" fill-rule="nonzero"></path>
            <circle id="Oval" cx="112" cy="100" r="21"></circle>
        </g>
    </g>
</svg>