<?xml version="1.0" encoding="UTF-8"?>
<svg width="200px" height="200px" viewBox="0 0 200 200" version="1.1" xmlns="http://www.w3.org/2000/svg" xmlns:xlink="http://www.w3.org/1999/xlink">
    <!-- Generator: Sketch 52.6 (67491) - http://www.bohemiancoding.com/sketch -->
    <title>stencil</title>
    <desc>Created with Sketch.</desc>
    <g id="Page-1" stroke="none" stroke-width="1" fill="none" fill-rule="evenodd">
        <g id="stencil" fill="#000000" fill-rule="nonzero">
            <path d="M131.412639,0 L68.5873606,0 C30.8550186,0 0,30.8550186 0,68.5873606 L0,131.412639 C0,169.144981 30.8550186,200 68.5873606,200 L131.412639,200 C169.144981,200 200,169.144981 200,131.412639 L200,68.5873606 C200,30.8550186 169.144981,5.36539008e-15 131.412639,0 Z M146.840149,132.063197 C146.840149,142.565056 131.598513,151.115242 121.096654,151.115242 L78.9033457,151.115242 C68.401487,151.115242 53.1598513,142.565056 53.1598513,132.063197 L53.1598513,131.040892 L146.840149,131.040892 L146.840149,132.063197 Z M146.840149,110.037175 L78.9033457,110.037175 C68.401487,110.037175 53.1598513,101.486989 53.1598513,90.9851301 L53.1598513,89.9628253 L121.096654,89.9628253 C131.598513,89.9628253 146.840149,98.5130112 146.840149,109.01487 L146.840149,110.037175 Z M146.840149,68.9591078 L53.1598513,68.9591078 L53.1598513,67.936803 C53.1598513,57.4349442 68.401487,48.8847584 78.9033457,48.8847584 L121.096654,48.8847584 C131.598513,48.8847584 146.840149,57.4349442 146.840149,67.936803 L146.840149,68.9591078 Z" id="Shape"></path>
        </g>
    </g>
</svg>