<?xml version="1.0" encoding="UTF-8"?>
<svg width="375px" height="249px" viewBox="0 0 375 249" version="1.1" xmlns="http://www.w3.org/2000/svg" xmlns:xlink="http://www.w3.org/1999/xlink">
    <!-- Generator: Sketch 52.6 (67491) - http://www.bohemiancoding.com/sketch -->
    <title>wc</title>
    <desc>Created with Sketch.</desc>
    <g id="Page-1" stroke="none" stroke-width="1" fill="none" fill-rule="evenodd">
        <g id="wc">
            <polygon id="Path" fill="#E44D26" points="126.862052 248.188158 56 52.532798 250.601122 0 286 205.214872 212.217697 249"></polygon>
            <polygon id="Path" fill="#F16529" points="208.731195 231 269 195.732124 238.408294 21 158 42.393469"></polygon>
            <path d="M345.912827,100.511059 L354.999197,132.037222 L285.43692,151.857423 C285.43692,151.857423 285.43692,194.048446 251.679196,210.820896 C217.92447,227.594857 191.702261,213.371517 191.702261,213.371517 L187.50371,201.171448 L237.576143,187.442216 L248.658398,144.226713 L216.399087,112.229109 L170.026233,126.372364 L166,115.273837 C166,115.273837 187.667037,66.9827799 251.688187,94.4488005 C251.688187,94.4488005 271.861307,107.142977 276.385013,118.338209 L345.912827,100.511059 Z M354.999197,98.1432727 L366.08295,94.9232644 L375,127.117303 L363.399295,130.665205 L354.999197,98.1432727 Z" id="Shape" fill="#EFEFEF" fill-rule="nonzero"></path>
            <path d="M358.904751,97.7844306 L366.083334,96 L375,127.948806 L363.399794,131.469683 L360.361145,120.772096 L364.991039,118.959174 L358.904751,97.7844306 Z M338.244037,103.502106 L345.914078,101.545231 L355.000057,132.831248 L285.440772,152.500472 C285.440772,152.500472 284.691599,189.033316 260.484296,205.576037 C236.317449,222.105263 209.080488,221.607422 191.701155,213.547494 L189.763792,207.964775 C189.763792,207.964775 237.063626,219.094224 260.484296,183.527072 C274.60772,160.079054 274.358994,143.173448 274.358994,143.173448 L344.158015,124.262982 L338.244037,103.502106 Z M166,116.176062 L206.828471,104.317846 L216.387929,113.154526 L170.02606,127.190048 L166,116.176062 Z" id="Shape" fill="#BCBCBC" fill-rule="nonzero"></path>
            <path d="M20.2653495,137.892559 L28.5034189,169.521317 L98.664059,150.750768 C98.664059,150.750768 120.191475,186.826568 157.905869,183.822257 C195.630805,180.819451 211,155.187279 211,155.187279 L208.399059,142.598359 L158.166414,156.583373 L126.549999,125.330718 L138.083296,81.3597642 L185.349031,69.6358814 L183.160747,58.0669531 C183.160747,58.0669531 139.828803,27.8899526 98.5390573,84.2677926 C98.5390573,84.2677926 87.6111904,105.483011 89.3943484,117.379901 L20.2653495,137.892559 Z M11.2170276,140.540324 L0,143.475432 L8.72151004,175.585601 L20.5545103,172.668547 L11.2170276,140.540324 Z" id="Shape" fill="#EFEFEF" fill-rule="nonzero"></path>
            <path d="M7.12208962,141.070044 L0,143.248867 L8.72151004,175.678988 L20.5545103,172.732867 L17.6915176,161.834195 L12.7396397,162.662269 L7.12208962,141.070044 Z M27.9160612,135.334301 L20.2653495,137.610365 L28.5034189,169.554278 L98.664059,150.596696 C98.664059,150.596696 118.099577,181.996662 147.499094,183.844255 C176.869995,185.672096 200.121833,171.128378 211,155.077413 L209.814742,149.215559 C209.814742,149.215559 174.672674,183.455288 136.15857,164.64357 C111.914248,151.559997 103.453284,136.694166 103.453284,136.694166 L33.4477666,156.467666 L27.9160612,135.334301 Z M183.160747,57 L141.822808,67.8485318 L138.093839,80.5157881 L185.358068,68.6750866 L183.160747,57 Z" id="Shape" fill="#BCBCBC" fill-rule="nonzero"></path>
        </g>
    </g>
</svg>