<svg width="2500" height="2263" viewBox="0 0 95 86" xmlns="http://www.w3.org/2000/svg" xmlns:xlink="http://www.w3.org/1999/xlink"><title>logo-symbol</title><desc>Created using Figma</desc><use xlink:href="#a" transform="translate(.17 30.901)" fill="#EA6C00"/><use xlink:href="#b" transform="matrix(-1 0 0 1 94.64 30.901)" fill="#EA6C00"/><use xlink:href="#c" transform="translate(19.3 30.901)" fill="#FDAD00"/><use xlink:href="#d" transform="translate(19.3 .42)" fill="#FDD231"/><use xlink:href="#e" transform="matrix(-1 0 0 1 75.5 .42)" fill="#FDD231"/><use xlink:href="#f" transform="matrix(-1 0 0 1 94.64 3.234)" fill="#FDAD00"/><use xlink:href="#g" transform="translate(.17 3.234)" fill="#FDAD00"/><use xlink:href="#h" transform="translate(19.3 .42)" fill="#FEEEB7"/><defs><path id="a" fill-rule="evenodd" d="M19.131 0l28.1 55L0 0h19.131z"/><path id="b" fill-rule="evenodd" d="M19.131 0l28.1 55L0 0h19.131z"/><path id="c" fill-rule="evenodd" d="M0 0h56.2L28.1 55 0 0z"/><path id="d" fill-rule="evenodd" d="M28.1 0L1.479 2.814 0 30.481 28.1 0z"/><path id="e" fill-rule="evenodd" d="M28.1 0L1.479 2.814 0 30.481 28.1 0z"/><path id="f" fill-rule="evenodd" d="M0 27.667L20.61 0l-1.479 27.667H0z"/><path id="g" fill-rule="evenodd" d="M0 27.667L20.61 0l-1.479 27.667H0z"/><path id="h" fill-rule="evenodd" d="M28.1 0L0 30.481h56.2L28.1 0z"/></defs></svg>