<svg version="1.1" id="Layer_1" xmlns="http://www.w3.org/2000/svg" xmlns:xlink="http://www.w3.org/1999/xlink" x="0px" y="0px"
	 viewBox="0 0 250 250" fill="black" style="enable-background:new 0 0 250 250;" xml:space="preserve">
<path d="M145.1 2.4H77.5C36.9 2.4 3.7 35.6 3.7 76.2v67.6c0 40.6 33.2 73.8 73.8 73.8h67.6c40.6 0 73.8-33.2 73.8-73.8V76.2c0-40.6-33.2-73.8-73.8-73.8zm16.6 142.1c0 11.3-16.4 20.5-27.7 20.5H88.6c-11.3 0-27.7-9.2-27.7-20.5v-1.1h100.8v1.1zm0-23.7H88.6c-11.3 0-27.7-9.2-27.7-20.5v-1.1H134c11.3 0 27.7 9.2 27.7 20.5v1.1zm0-44.2H60.9v-1.1C60.9 64.2 77.3 55 88.6 55H134c11.3 0 27.7 9.2 27.7 20.5v1.1z"/></svg>
